<?xml version="1.0" standalone="no"?>
<!DOCTYPE svg PUBLIC "-//W3C//DTD SVG 20010904//EN"
 "http://www.w3.org/TR/2001/REC-SVG-20010904/DTD/svg10.dtd">
<svg version="1.0" xmlns="http://www.w3.org/2000/svg"
 width="450.000000pt" height="450.000000pt" viewBox="0 0 450.000000 450.000000"
 preserveAspectRatio="xMidYMid meet">
<metadata>
Created by potrace 1.15, written by Peter Selinger 2001-2017
</metadata>
<g transform="translate(0.000000,450.000000) scale(0.100000,-0.100000)"
fill="#000000" stroke="none">
<path d="M2050 3989 c-809 -92 -1450 -738 -1539 -1551 -38 -342 25 -677 185
-988 457 -887 1555 -1213 2423 -718 141 80 241 158 366 283 213 213 354 446
438 726 224 740 -61 1538 -703 1964 -345 229 -761 330 -1170 284z m333 -634
c117 -25 210 -77 303 -169 61 -62 90 -100 117 -157 69 -142 84 -288 47 -433
-29 -115 -73 -189 -165 -282 -124 -126 -263 -184 -435 -184 -270 0 -502 168
-592 429 -20 56 -23 85 -22 196 0 114 4 138 26 197 39 104 86 174 167 249 151
142 350 197 554 154z m160 -1520 c411 -75 721 -291 872 -607 19 -40 35 -78 35
-84 0 -23 -181 -184 -286 -254 -187 -125 -413 -217 -629 -256 -139 -25 -431
-25 -569 0 -223 41 -439 129 -630 256 -105 70 -286 231 -286 254 0 6 16 44 35
84 102 214 281 385 519 498 133 63 256 95 481 128 65 9 374 -3 458 -19z"/>
</g>
</svg>
